<svg class="diagram-root" style="background: #f5f6f6" xmlns="http://www.w3.org/2000/svg" xmlns:xlink="http://www.w3.org/1999/xlink"><style>.diagram-root { font-family: "Helvetica Neue", sans-serif; font-size: 12px; } .t { overflow: visible; } .t-bg { y: 40; fill: #fff;   } .th { fill: #005aa0;   } .tht { fill: #fff; font-size: 14px;  } .tf { fill: #323c46; overflow: visible; } .tf.pk { fill: #005aa0; font-weight: bold; } .tf.fk { font-weight: bold; } .ty { fill: #adb1b5; font-weight: normal; text-anchor: end; } .r { fill: transparent; stroke: #c3c3c3; stroke-width: 1; } .l { stroke: 1; } .i { fill: #c2c7ce; stroke: #c2c7ce; } .i.ix { fill: #afb3b6; stroke: #000; } .fa { fill: transparent; overflow: visible; } .fa .bg.hover { fill: #f7f7f7; } .c { cy: 12; r: 4; stroke: #d2d2dc; fill: #d2d2dc; } .hr { fill: transparent; stroke: #323c46; stroke-opacity: 0.035; stroke-width: 13; } .dc { stroke: #fa5a3c; fill: #fa5a3c; } .x { stroke: white; stroke-width: 1; } .hl .th { fill: #1b9bff; } .hl .tht {  } .fhl .bg { fill: #e7f4ff; } .fhls .bg {  } .r.hl { stroke: #1b9bff; } .dim { opacity: 0.25; }</style><g class="drawing-wrapper" transform="translate(-17.99999999999997, -30) scale(1,1)"><g class="rs"><path d="M 363.66 142.67000000000002 m -1, 0 a 1,1 0 1,0 2,0 a 1,1 0 1,0 -2,0 M 363.66 142.67000000000002 m -0.5, 0 a 0.5,0.5 0 1,0 1,0 a 0.5,0.5 0 1,0 -1,0  M363.66 142.67000000000002 L363.66 142.67000000000002 351.66 142.67000000000002 M 363.66 148.67000000000002 m -1, 0 a 1,1 0 1,0 2,0 a 1,1 0 1,0 -2,0 M 363.66 148.67000000000002 m -0.5, 0 a 0.5,0.5 0 1,0 1,0 a 0.5,0.5 0 1,0 -1,0  M363.66 148.67000000000002 L363.66 148.67000000000002 356.66 142.67000000000002 363.66 136.67000000000002 M 363.66 136.67000000000002 m -1, 0 a 1,1 0 1,0 2,0 a 1,1 0 1,0 -2,0 M 363.66 136.67000000000002 m -0.5, 0 a 0.5,0.5 0 1,0 1,0 a 0.5,0.5 0 1,0 -1,0  M351.66 142.67000000000002 Q 327.04 142.67000000000002, 302.41 129.84 T 253.16 117 M 241.16 117 m -1, 0 a 1,1 0 1,0 2,0 a 1,1 0 1,0 -2,0 M 241.16 117 m -0.5, 0 a 0.5,0.5 0 1,0 1,0 a 0.5,0.5 0 1,0 -1,0  M241.16 117 L241.16 117 253.16 117 M247.16 123 L247.16 123 247.16 111" id="h395007135" class="r"></path></g><g class="hrs"></g><g class="ts"><svg width="201.16" height="225" x="40" y="60" id="h2948373614" class="t"><rect height="40" width="201.16" class="th"></rect><text x="13" y="25" class="tht">users</text><rect height="185" width="201.16" class="t-bg"></rect><text x="13" y="61" class="tf pk">user_id<tspan x="188.16" class="ty">SERIAL</tspan></text><path d="M7,14A2,2 0 0,1 5,12A2,2 0 0,1 7,10A2,2 0 0,1 9,12A2,2 0 0,1 7,14M12.65,10C11.83,7.67 9.61,6 7, 6A6, 6 0 0, 0 1, 12A6, 6 0 0, 0 7, 18C9.61, 18 11.83, 16.33 12.65, 14H17V18H21V14H23V10H12.65Z" class="i pk" transform="translate(125.474453125, 48) scale(0.65)"></path><text x="13" y="86" class="tf">address<tspan x="188.16" class="ty">VARCHAR(255)</tspan></text><path d="M22,18V22H18V19H15V16H12L9.74,13.74C9.19,13.91 8.61,14 8,14A6,6 0 0,1 2,8A6,6 0 0,1 8,2A6,6 0 0,1 14,8C14,8.61 13.91, 9.19 13.74, 9.74L22, 18M7, 5A2, 2 0 0, 0 5, 7A2, 2 0 0, 0 7, 9A2, 2 0 0, 0 9, 7A2, 2 0 0, 0 7, 5Z" class="i uq" transform="translate(86.361171875, 75.5) scale(0.5)"></path><text x="13" y="111" class="tf">username<tspan x="188.16" class="ty">VARCHAR(255)</tspan></text><path d="M22,18V22H18V19H15V16H12L9.74,13.74C9.19,13.91 8.61,14 8,14A6,6 0 0,1 2,8A6,6 0 0,1 8,2A6,6 0 0,1 14,8C14,8.61 13.91, 9.19 13.74, 9.74L22, 18M7, 5A2, 2 0 0, 0 5, 7A2, 2 0 0, 0 7, 9A2, 2 0 0, 0 9, 7A2, 2 0 0, 0 7, 5Z" class="i uq" transform="translate(86.361171875, 100.5) scale(0.5)"></path><text x="13" y="136" class="tf">first_name<tspan x="188.16" class="ty">VARCHAR(255)</tspan></text><text x="13" y="161" class="tf">last_name<tspan x="188.16" class="ty">VARCHAR(255)</tspan></text><text x="13" y="186" class="tf">email<tspan x="188.16" class="ty">VARCHAR(255)</tspan></text><text x="13" y="211" class="tf">mobile<tspan x="188.16" class="ty">VARCHAR(255)</tspan></text></svg><svg width="185.17" height="250" x="363.66" y="60.67" id="h1790037204" class="t"><rect height="40" width="185.17" class="th"></rect><text x="13" y="25" class="tht">strategies</text><rect height="210" width="185.17" class="t-bg"></rect><text x="13" y="61" class="tf pk">strategy_id<tspan x="172.17" class="ty">SERIAL</tspan></text><path d="M7,14A2,2 0 0,1 5,12A2,2 0 0,1 7,10A2,2 0 0,1 9,12A2,2 0 0,1 7,14M12.65,10C11.83,7.67 9.61,6 7, 6A6, 6 0 0, 0 1, 12A6, 6 0 0, 0 7, 18C9.61, 18 11.83, 16.33 12.65, 14H17V18H21V14H23V10H12.65Z" class="i pk" transform="translate(109.48445312499999, 48) scale(0.65)"></path><text x="13" y="86" class="tf fk">creator_id<tspan x="172.17" class="ty">INT</tspan></text><text x="13" y="111" class="tf">name<tspan x="172.17" class="ty">VARCHAR(255)</tspan></text><text x="13" y="136" class="tf">slug<tspan x="172.17" class="ty">VARCHAR(255)</tspan></text><path d="M22,18V22H18V19H15V16H12L9.74,13.74C9.19,13.91 8.61,14 8,14A6,6 0 0,1 2,8A6,6 0 0,1 8,2A6,6 0 0,1 14,8C14,8.61 13.91, 9.19 13.74, 9.74L22, 18M7, 5A2, 2 0 0, 0 5, 7A2, 2 0 0, 0 7, 9A2, 2 0 0, 0 9, 7A2, 2 0 0, 0 7, 5Z" class="i uq" transform="translate(70.37117187499999, 125.5) scale(0.5)"></path><text x="13" y="161" class="tf">description<tspan x="172.17" class="ty">TEXT</tspan></text><text x="13" y="186" class="tf">date_created<tspan x="172.17" class="ty">TIMESTAMP</tspan></text><text x="13" y="211" class="tf">subscribers<tspan x="172.17" class="ty">INT</tspan></text><text x="13" y="236" class="tf">success<tspan x="172.17" class="ty">FLOAT</tspan></text></svg></g></g><text class="qdbd-link" x="10" y="20">www.quickdatabasediagrams.com</text></svg>